<svg width="892" height="877" fill="none" xmlns="http://www.w3.org/2000/svg" xmlns:xlink="http://www.w3.org/1999/xlink"><path d="M758 507c16.568 0 30.126 13.456 28.785 29.97a370.005 370.005 0 0 1-619.591 242.041A370.006 370.006 0 0 1 49.215 536.97C47.873 520.456 61.43 507 78 507h680Z" fill="#FAD233"></path><path d="M758 507c16.568 0 30.126 13.456 28.785 29.97a370.005 370.005 0 0 1-619.591 242.041A370.006 370.006 0 0 1 49.215 536.97C47.873 520.456 61.43 507 78 507h680Z" fill="#FAD233"></path><path fill="url(#a)" d="M49 137h740v740H49z"></path><path d="M167.573 507a251.29 251.29 0 0 0 500.854 0h-24.626A226.761 226.761 0 0 1 418 712.96 226.755 226.755 0 0 1 192.199 507h-24.626Z" fill="#fff"></path><path d="M728.728 486.204c8.807 0 15.987 7.144 15.558 15.94a326.68 326.68 0 0 1-557.28 215.054 326.678 326.678 0 0 1-95.292-215.054c-.43-8.796 6.75-15.94 15.557-15.94s15.901 7.146 16.377 15.939A294.778 294.778 0 0 0 418 780.991a294.784 294.784 0 0 0 294.352-278.848c.476-8.793 7.57-15.939 16.376-15.939Z" fill="#fff"></path><g filter="url(#b)"><path d="M418.056 700.609a4.078 4.078 0 0 1-.056-.671v-80c0-1.061.421-2.078 1.172-2.828a3.995 3.995 0 0 1 2.828-1.172h131c1.061 0 2.078.421 2.828 1.172a3.995 3.995 0 0 1 1.172 2.828v80a3.995 3.995 0 0 1-1.172 2.828 3.995 3.995 0 0 1-2.828 1.172H426.626l-6.813 9.479c-.567.789-1.812.388-1.812-.583v-11.896c0-.115.019-.226.055-.329Z" fill="#fff"></path><path fill="url(#c)" d="M425 624h40v51h-40z"></path></g><path d="M475 624.939h72v3h-72v-3Zm0 34h72v3h-72v-3Zm0 8h72v3h-72v-3Zm0 8h72v3h-72v-3Zm0-37h28v3h-28v-3Zm34 0h28v3h-28v-3Zm-34 8h28v3h-28v-3Zm34 0h28v3h-28v-3Z" fill="#E5E5E5"></path><path d="M527.124 676.028c.71-.432 1.37-.857 2.051-1.244.77-.44 1.629-.7 2.514-.76 1.682-.105 2.797.767 3.145 2.525.16.82.174 1.669.254 2.504.007.052.007.097.014.171.247-.126.464-.261.696-.357.775-.321 1.217-.075 1.384.76.225 1.095-.014 2.13-.34 3.159-.182.566-.37 1.132-.493 1.728.058-.074.123-.149.174-.231.463-.76.92-1.52 1.384-2.272.101-.172.203-.343.34-.485.181-.193.305-.156.413.09.203.469.131.946.037 1.423-.192.925-.375 1.851-.551 2.779a2.728 2.728 0 0 0-.029.693c.014.261.138.335.34.186.254-.179.486-.387.703-.611 1.457-1.49 2.696-3.174 3.899-4.872 1.109-1.565 2.174-3.167 3.261-4.746.108-.157.224-.306.355-.433.065-.067.174-.074.261-.111.021.104.087.216.065.313-.036.186-.109.357-.174.536a15.114 15.114 0 0 1-2.094 3.666c-1.522 1.982-3.029 3.986-4.565 5.953a6.951 6.951 0 0 1-1.232 1.222c-.537.409-.957.238-1.058-.448-.102-.7-.087-1.423-.08-2.138.007-.439.094-.872.152-1.401-.108.142-.166.209-.21.284-.507.804-1.014 1.601-1.529 2.406-.058.09-.101.194-.181.246-.152.097-.377.276-.478.224-.145-.075-.268-.313-.297-.492-.087-.507.043-.999.202-1.483.414-1.266.812-2.533 1.203-3.807.08-.261.109-.537.174-.797.065-.269-.065-.395-.297-.38-.638.044-1.145.395-1.565.842-.123.134-.101.417-.13.633a19.255 19.255 0 0 1-3.471 8.531 5.178 5.178 0 0 1-.914.968c-.463.373-.869.209-.992-.387-.174-.827-.109-1.662.079-2.474.761-3.211 2.298-5.945 4.79-8.076.094-.082.196-.216.203-.328.022-.819.094-1.646.015-2.451-.124-1.207-1.037-1.967-2.225-2.027-.985-.044-1.891.224-2.732.708-.753.425-1.464.924-2.181 1.408-.101.067-.181.261-.174.388.145 1.929.326 3.859.449 5.789.116 1.773.196 3.554.008 5.334-.145 1.416-.522 2.757-1.522 3.808-1.123 1.169-2.471 1.728-4.065 1.311-.993-.261-1.573-1.006-1.935-1.96-.435-1.14-.507-2.332-.326-3.516.746-4.798 3.058-8.665 6.666-11.75a.635.635 0 0 0 .247-.558c-.058-1.438-.094-2.884-.145-4.322 0-.015-.015-.037-.044-.097-.087.067-.181.12-.26.187-2.08 1.721-4.167 3.449-6.254 5.17a1.16 1.16 0 0 1-.507.246c-.232.045-.421-.097-.508-.32-.094-.231.015-.388.196-.537l7.239-5.968a.577.577 0 0 0 .168-.193.577.577 0 0 0 .071-.246c.203-2.049.616-4.038 1.754-5.782.399-.611.87-1.169 1.355-1.706.333-.365.775-.678 1.283-.417.282.141.565.417.703.708.833 1.758.884 3.375-.493 4.768-.906.916-1.935 1.721-2.913 2.563-.392.335-.805.648-1.203.983-.08.068-.16.187-.16.276 0 1.326.015 2.653.029 3.979 0 .231.029.454.051.715Zm-.253 1.594c-.138.105-.211.157-.283.216-2.66 2.288-4.558 5.119-5.681 8.494-.428 1.282-.79 2.585-.703 3.971.101 1.572 1.355 2.72 2.877 2.563 1.717-.179 2.891-1.155 3.608-2.719.732-1.587.768-3.301.696-5.007-.072-1.796-.203-3.591-.319-5.387-.051-.685-.13-1.378-.195-2.131Zm.297-7.979c.036.015.072.03.101.045a.624.624 0 0 0 .145-.105c.942-.79 1.891-1.572 2.826-2.376.565-.485 1.102-1.014 1.457-1.692.34-.655.347-1.304-.037-1.944-.405-.671-.826-.73-1.391-.201a9.327 9.327 0 0 0-2.601 4.209c-.196.678-.334 1.378-.5 2.064Zm2.71 20.258c1.5-.671 4.543-6.698 4.34-8.553-1.876 1.14-4.637 6.571-4.34 8.553Z" fill="url(#d)"></path><path d="M442 693.001c0-1.591.632-3.117 1.757-4.243a6.003 6.003 0 0 1 4.243-1.757h62c1.591 0 3.117.632 4.243 1.757a6.003 6.003 0 0 1 1.757 4.243v14a6.003 6.003 0 0 1-1.757 4.243 6.003 6.003 0 0 1-4.243 1.757h-62a6.003 6.003 0 0 1-4.243-1.757 6.003 6.003 0 0 1-1.757-4.243v-14Z" fill="#FAD233"></path><path fill-rule="evenodd" clip-rule="evenodd" d="M440 693.001a8 8 0 0 1 8-8h62a8 8 0 0 1 8 8v14a8 8 0 0 1-8 8h-62a8 8 0 0 1-8-8v-14Zm8-6a6.003 6.003 0 0 0-4.243 1.757 6.003 6.003 0 0 0-1.757 4.243v14c0 1.591.632 3.117 1.757 4.243a6.003 6.003 0 0 0 4.243 1.757h62a6.003 6.003 0 0 0 4.243-1.757 6.003 6.003 0 0 0 1.757-4.243v-14a6.003 6.003 0 0 0-1.757-4.243 6.003 6.003 0 0 0-4.243-1.757h-62Z" fill="#fff"></path><path d="M466.323 696.001h-1.304l2.879 8h1.394l2.879-8h-1.305l-2.226 6.516h-.09l-2.227-6.516Zm9.444 8.121c1.309 0 2.234-.644 2.5-1.621l-1.105-.199c-.211.566-.719.855-1.383.855-1 0-1.672-.648-1.703-1.804h4.265v-.415c0-2.167-1.297-3.015-2.656-3.015-1.672 0-2.773 1.273-2.773 3.117 0 1.863 1.086 3.082 2.855 3.082Zm-1.687-3.644c.046-.852.664-1.59 1.613-1.59.906 0 1.5.672 1.504 1.59h-3.117Zm6.107 3.523h1.168v-3.664c0-.785.606-1.352 1.434-1.352.242 0 .515.043.609.071v-1.118a5.134 5.134 0 0 0-.496-.027c-.703 0-1.305.399-1.523 1.043h-.063v-.953h-1.129v6Zm4.772 0h1.168v-6h-1.168v6Zm.59-6.926c.402 0 .738-.312.738-.695 0-.383-.336-.699-.738-.699-.407 0-.739.316-.739.699 0 .383.332.695.739.695Zm5.555.926h-1.293v-.539c0-.531.218-.82.789-.82.242 0 .414.054.523.089l.274-.945a2.825 2.825 0 0 0-.977-.16c-.949 0-1.781.555-1.781 1.68v.695h-.926v.937h.926v5.063h1.172v-5.063h1.293v-.937Zm1.755 6h1.168v-6h-1.168v6Zm.589-6.926c.403 0 .739-.312.739-.695 0-.383-.336-.699-.739-.699-.406 0-.738.316-.738.699 0 .383.332.695.738.695Zm5.286 7.047c1.308 0 2.234-.644 2.5-1.621l-1.106-.199c-.211.566-.718.855-1.382.855-1 0-1.672-.648-1.704-1.804h4.266v-.415c0-2.167-1.297-3.015-2.656-3.015-1.672 0-2.774 1.273-2.774 3.117 0 1.863 1.086 3.082 2.856 3.082Zm-1.688-3.644c.047-.852.664-1.59 1.614-1.59.906 0 1.5.672 1.504 1.59h-3.118Zm8.354 3.64c1.094 0 1.523-.668 1.734-1.051h.098v.934h1.141v-8h-1.168v2.973h-.071c-.211-.371-.609-1.051-1.726-1.051-1.449 0-2.516 1.144-2.516 3.09 0 1.941 1.051 3.105 2.508 3.105Zm.258-.996c-1.043 0-1.586-.918-1.586-2.121 0-1.191.531-2.086 1.586-2.086 1.019 0 1.566.832 1.566 2.086 0 1.262-.558 2.121-1.566 2.121Z" fill="#735C00"></path><path d="M445.5 689.001c-6.355 0-11.5 5.154-11.5 11.479 0 6.367 5.145 11.521 11.5 11.521 6.334 0 11.5-5.154 11.5-11.521 0-6.325-5.166-11.479-11.5-11.479Zm5.248 11.233-6.437 4.025a2.134 2.134 0 0 1-1.086.308 2.037 2.037 0 0 1-1.722-.965l-1.886-2.957a2.048 2.048 0 0 1 .051-2.283c.156-.221.355-.408.584-.551a2.043 2.043 0 0 1 2.829.636l.779 1.232 4.715-2.936a2.016 2.016 0 0 1 1.541-.257 2.023 2.023 0 0 1 1.267.914 2.05 2.05 0 0 1 .268 1.548 2.052 2.052 0 0 1-.903 1.286Z" fill="#FAD233"></path><path fill-rule="evenodd" clip-rule="evenodd" d="M441.503 703.602a2.039 2.039 0 0 0 1.722.965c.368 0 .737-.103 1.086-.308l6.437-4.025c.46-.292.784-.754.903-1.286a2.05 2.05 0 0 0-.268-1.548 2.013 2.013 0 0 0-1.267-.914 2.033 2.033 0 0 0-1.541.257l-4.715 2.936-.779-1.232a2.038 2.038 0 0 0-2.083-.929 2.057 2.057 0 0 0-.746.293 2.031 2.031 0 0 0-.911 1.284 2.048 2.048 0 0 0 .276 1.55l1.886 2.957ZM431 700.48c0-7.983 6.49-14.479 14.5-14.479 7.986 0 14.5 6.492 14.5 14.479 0 8.022-6.507 14.521-14.5 14.521-8.017 0-14.5-6.503-14.5-14.521Zm3 0c0-6.325 5.145-11.479 11.5-11.479 6.334 0 11.5 5.154 11.5 11.479 0 6.367-5.166 11.521-11.5 11.521-6.355 0-11.5-5.154-11.5-11.521Z" fill="#fff"></path><path d="M117.268 453.129c0 6.075-4.925 11-11 11-6.076 0-11-4.925-11-11s4.924-11 11-11c6.075 0 11 4.925 11 11Zm623 1c0 6.075-4.925 11-11 11-6.076 0-11-4.925-11-11s4.924-11 11-11c6.075 0 11 4.925 11 11Z" fill="#FAD233"></path><g class="step-1" data-svg-origin="180.26800489410732 422.77301025390625" transform="matrix(1,0,0,1,0,0)" style="transform-origin: 0px 0px; opacity: 1;"><g fill="#FAD233"><path d="M101.278 422.773c.242-33.598 5.729-65.95 15.682-96.277l4.77-1.751 2.358 5.706c-9.332 28.925-14.502 59.72-14.804 91.679-2.723.01-5.397.23-8.006.643Z"></path><path fill-rule="evenodd" clip-rule="evenodd" d="m125.074 317.126 5.717 13.834 4.66-1.924-7.58-18.267-18.554 6.771 1.73 4.735 14.027-5.149Z"></path></g><path d="M152.268 298c15.464 0 28-12.536 28-28s-12.536-28-28-28-28 12.536-28 28 12.536 28 28 28Z" fill="#fff"></path><path d="M157.828 273.333c-2.703 0-4.894 2.148-4.894 4.798s2.191 4.797 4.894 4.797c2.703 0 4.893-2.148 4.893-4.797 0-2.65-2.191-4.798-4.893-4.798Zm3.059 3.916-2.032 2.464c-.316.385-.72 1.095-1.28 1.107-.354.007-.602-.24-.863-.439l-.749-.573-1.066-.817a.757.757 0 0 1-.298-.517.776.776 0 0 1 .161-.574.806.806 0 0 1 1.114-.134l1.561 1.195 2.217-2.689a.803.803 0 0 1 1.115-.117c.342.271.395.76.12 1.094Z" fill="#FAD233"></path><g fill="#1FBCFF"><path d="M150.691 279.888h-6.161v-3.003c.726-.883 3.902-4.474 7.561-4.474.602 0 1.188.105 1.754.271a6.413 6.413 0 0 1 3.529-1.048c1.114 0 2.16.282 3.071.775v-9.826c0-4.74-3.92-8.583-8.756-8.583-4.835 0-8.755 3.842-8.755 8.583v15.965h.009v2.118c0 .43.355.778.793.778h6.954a.775.775 0 0 0 .558-.225.77.77 0 0 0 .001-1.106.787.787 0 0 0-.558-.225Zm-3.224-17.616v.992c0 .605.501 1.095 1.118 1.095.617 0 1.118-.49 1.118-1.095v-1.132c0-.571-.448-1.035-1.018-1.086 1.421-1.189 3.274-2.078 5.374-2.517 1.557-.327 3.028.831 3.028 2.391v4.203c0 1.043-3.922 3.531-3.922 3.531-.394.289-.921.451-1.47.451-.497 0-.978-.133-1.359-.375 0 0-4.6-2.429-4.468-3.137.223-1.206.784-2.33 1.599-3.321Z"></path><path d="M154.329 264.359a1.107 1.107 0 0 1-1.118-1.096v-1.131c0-.605.501-1.096 1.118-1.096.618 0 1.118.491 1.118 1.096v1.131a1.105 1.105 0 0 1-1.118 1.096Z"></path></g><g class="bubble-pointer" fill="#fff"><path d="M115.912 221.402a.972.972 0 0 1 .156.171l7.12 9.906c.567.789 1.812.388 1.812-.584V219a.997.997 0 0 0-1-1h-9.326c-.925 0-1.354 1.148-.656 1.755l1.894 1.647Z"></path><path d="M0 218a3.999 3.999 0 0 0 4 4h117a3.995 3.995 0 0 0 2.828-1.172A3.995 3.995 0 0 0 125 218v-59a3.995 3.995 0 0 0-1.172-2.828A3.995 3.995 0 0 0 121 155H4a3.997 3.997 0 0 0-4 4v59Z"></path></g><path d="M22.35 172.034h-2.754l3.435 10.182h3.276l3.436-10.182h-2.755l-2.276 7.457h-.085l-2.277-7.457Zm9.189 10.182h7.1v-1.999h-4.64v-2.093h4.276v-2.003H34v-2.088h4.638v-1.999H31.54v10.182h-.001Zm9.34 0h2.462v-3.485h1.262l1.86 3.485h2.684l-2.113-3.878c1.119-.507 1.765-1.506 1.765-2.913 0-2.093-1.426-3.391-3.713-3.391H40.88v10.182h-.001Zm2.462-5.424v-2.774h1.213c1.103 0 1.695.462 1.695 1.407 0 .944-.592 1.367-1.695 1.367H43.34Zm9.97-4.758h-2.462v10.182h2.46v-10.182h.002Zm2.244 10.182h2.46v-4.092h4.048v-2.003h-4.047v-2.088h4.49v-1.999h-6.951v10.182Zm8.382-10.182 3.724 6.781v3.401h2.446v-3.401l3.724-6.781h-2.75l-2.152 4.261h-.09l-2.152-4.261h-2.75Z" fill="#2ED6FF"></path><path d="M22.5 196.034h-2.462v10.182H22.5v-10.182Zm6.008 10.182c3.102 0 5.026-1.914 5.026-5.096 0-3.177-1.924-5.086-5.031-5.086h-3.76v10.182h3.765Zm-1.303-2.098v-5.986h1.173c1.75 0 2.69.795 2.69 2.988 0 2.202-.94 2.998-2.655 2.998h-1.208Zm8.466 2.098h7.099v-1.999h-4.64v-2.093h4.277v-2.003h-4.275v-2.088h4.638v-1.999h-7.1v10.182Zm18.006-10.182H51.22v5.866h-.085l-4.007-5.866H45.01v10.182h2.46v-5.877h.066l4.052 5.877h2.088v-10.182Zm1.914 1.999h3.092v8.183h2.426v-8.183h3.088v-1.999H55.59v1.999Zm12.969-1.999h-2.461v10.182h2.46v-10.182Zm1.912 1.999h3.092v8.183h2.426v-8.183h3.087v-1.999h-8.605v1.999Zm10-1.999 3.724 6.781v3.401h2.446v-3.401l3.724-6.781h-2.75l-2.152 4.261h-.09l-2.153-4.261h-2.75Z" fill="#737373"></path></g><g class="step-2" data-svg-origin="342.26800537109375 231.7009873385764" transform="matrix(1,0,0,1,0,0)" style="transform-origin: 0px 0px; opacity: 1;"><path d="M313.268 158c16.016 0 29-12.984 29-29s-12.984-29-29-29-29 12.984-29 29 12.984 29 29 29Z" fill="#fff"></path><path d="M318.533 128.248c-4.397 0-7.926-3.58-7.926-7.926 0-.948.166-1.864.489-2.708h-5.062a3.25 3.25 0 0 0-3.239 3.239v16.185a3.242 3.242 0 0 0 3.239 3.24h11.53a3.234 3.234 0 0 0 3.239-3.24v-9.123a7.792 7.792 0 0 1-2.27.333Zm-2.542 7.989h-8.374a1.033 1.033 0 0 1-.737-.304 1.033 1.033 0 0 1-.304-.738c0-.583.458-1.042 1.041-1.042h8.374c.573 0 1.042.459 1.042 1.042 0 .573-.469 1.042-1.042 1.042Zm0-4.167h-8.374a1.032 1.032 0 0 1-.963-.642 1.05 1.05 0 0 1-.078-.399c0-.573.458-1.042 1.041-1.042h8.374c.573 0 1.042.469 1.042 1.042 0 .573-.469 1.041-1.042 1.041Z" fill="#1FBCFF"></path><path d="M318.305 113c-4.054 0-7.343 3.282-7.343 7.322a7.345 7.345 0 0 0 7.343 7.343 7.347 7.347 0 0 0 7.343-7.343c0-4.042-3.302-7.322-7.343-7.322Z" fill="#FAD233" stroke="#fff" stroke-width="3"></path><g class="bubble-pointer" fill="#fff"><path d="M299.18 66.618c.058.05.11.108.156.17l7.12 9.907c.566.79 1.812.388 1.812-.584V64.216a.998.998 0 0 0-1-1h-9.326c-.925 0-1.355 1.148-.657 1.754l1.895 1.648Z"></path><path d="M117.268 63a3.997 3.997 0 0 0 4 4h183a3.998 3.998 0 0 0 4-4V4a3.997 3.997 0 0 0-4-4h-183a3.999 3.999 0 0 0-4 4v59Z"></path></g><path d="M138.802 51c3.102 0 5.026-1.914 5.026-5.096 0-3.177-1.924-5.086-5.031-5.086h-3.759V51h3.764Zm-1.303-2.098v-5.986h1.173c1.75 0 2.69.796 2.69 2.988 0 2.202-.94 2.998-2.655 2.998h-1.208Zm18.076-2.993c0-3.366-2.128-5.23-4.862-5.23-2.745 0-4.858 1.864-4.858 5.23 0 3.35 2.113 5.23 4.858 5.23 2.734 0 4.862-1.864 4.862-5.23Zm-2.516 0c0 1.994-.875 3.072-2.346 3.072-1.467 0-2.347-1.078-2.347-3.072 0-1.993.88-3.072 2.347-3.072 1.471 0 2.346 1.078 2.346 3.072Zm13.895-1.402c-.249-2.436-2.063-3.828-4.524-3.828-2.715 0-4.828 1.864-4.828 5.23 0 3.35 2.063 5.23 4.828 5.23 2.794 0 4.34-1.899 4.524-3.704l-2.486-.015c-.174.98-.91 1.561-1.989 1.561-1.451 0-2.366-1.049-2.366-3.072 0-1.944.895-3.072 2.381-3.072 1.119 0 1.85.65 1.974 1.67h2.486Zm7.612-.636h2.356c-.02-1.904-1.536-3.192-3.903-3.192-2.326 0-4.002 1.268-3.987 3.162-.005 1.546 1.079 2.416 2.839 2.82l1.064.247c1.118.26 1.621.562 1.631 1.134-.01.621-.592 1.054-1.581 1.054-1.089 0-1.805-.507-1.86-1.487h-2.356c.03 2.382 1.685 3.52 4.245 3.52 2.536 0 4.037-1.148 4.047-3.082-.01-1.626-1.108-2.62-3.117-3.063l-.875-.199c-.925-.198-1.511-.507-1.491-1.113.005-.557.482-.96 1.436-.96.96 0 1.487.433 1.552 1.16Zm11.348 7.283c.875 0 1.814-.219 2.595-.775l.577.621h2.475l-1.571-1.77c.637-.845.96-2.013.96-3.37h-1.959a3.58 3.58 0 0 1-.447 1.75l-1.492-1.68.542-.389c.86-.616 1.352-1.422 1.352-2.376 0-1.358-1.029-2.496-2.704-2.496-1.73 0-2.879 1.208-2.879 2.725 0 .9.413 1.66.895 2.301-1.084.736-1.809 1.437-1.809 2.6 0 1.591 1.312 2.86 3.465 2.86Zm1.277-2.212a2.45 2.45 0 0 1-1.123.288c-.781 0-1.278-.442-1.278-1.094 0-.412.254-.76.671-1.069l1.73 1.875Zm-1.252-4.325c-.339-.433-.557-.81-.557-1.189 0-.472.338-.815.865-.82.552-.005.835.353.835.716 0 .338-.179.686-.666.99l-.477.303ZM196.717 51h2.461v-3.485h1.263l1.86 3.485h2.684l-2.113-3.878c1.119-.507 1.765-1.506 1.765-2.913 0-2.093-1.427-3.39-3.714-3.39h-4.206V51Zm2.461-5.424v-2.774h1.213c1.104 0 1.696.462 1.696 1.407 0 .944-.592 1.367-1.696 1.367h-1.213ZM206.687 51h7.099v-1.999h-4.638v-2.093h4.276v-2.003h-4.276v-2.088h4.638v-1.999h-7.099V51Zm9.341 0h2.461v-4.092h4.046v-2.003h-4.046v-2.088h4.489v-1.999h-6.95V51Zm8.889 0h7.1v-1.999h-4.639v-2.093h4.276v-2.003h-4.276v-2.088h4.639v-1.999h-7.1V51Zm9.341 0h2.461v-3.485h1.262l1.86 3.485h2.684l-2.112-3.878c1.118-.507 1.764-1.506 1.764-2.913 0-2.093-1.426-3.39-3.713-3.39h-4.206V51Zm2.461-5.424v-2.774h1.213c1.103 0 1.695.462 1.695 1.407 0 .944-.592 1.367-1.695 1.367h-1.213ZM244.227 51h7.1v-1.999h-4.639v-2.093h4.276v-2.003h-4.276v-2.088h4.639v-1.999h-7.1V51Zm18.006-10.182h-2.456v5.867h-.084l-4.007-5.867h-2.118V51h2.461v-5.876h.064L260.145 51h2.088V40.818Zm11.49 3.69c-.249-2.437-2.063-3.829-4.524-3.829-2.715 0-4.828 1.864-4.828 5.23 0 3.35 2.064 5.23 4.828 5.23 2.794 0 4.34-1.899 4.524-3.704l-2.486-.015c-.174.98-.91 1.561-1.988 1.561-1.452 0-2.367-1.049-2.367-3.072 0-1.944.895-3.072 2.381-3.072 1.119 0 1.85.65 1.974 1.67h2.486v.001ZM275.831 51h7.1v-1.999h-4.639v-2.093h4.276v-2.003h-4.276v-2.088h4.639v-1.999h-7.1V51Zm14.844-7.13h2.357c-.02-1.903-1.536-3.19-3.903-3.19-2.327 0-4.002 1.267-3.987 3.161-.005 1.546 1.079 2.416 2.839 2.82l1.064.247c1.118.26 1.62.562 1.63 1.134-.01.621-.591 1.054-1.581 1.054-1.088 0-1.804-.507-1.859-1.487h-2.357c.03 2.382 1.686 3.52 4.246 3.52 2.536 0 4.037-1.148 4.047-3.082-.01-1.626-1.109-2.62-3.117-3.063l-.875-.199c-.925-.198-1.511-.507-1.492-1.113.005-.557.483-.96 1.437-.96.96 0 1.487.433 1.551 1.16v-.002Z" fill="#737373"></path><g fill="#1FBCFF"><path d="m135.645 27.321.671-2.138h3.515l.671 2.138h2.645l-3.435-10.182h-3.277L133 27.321h2.645Zm1.258-4.007 1.128-3.61h.08l1.133 3.61h-2.341ZM151.103 17.14v6.353c0 1.059-.751 1.82-1.849 1.82-1.104 0-1.85-.761-1.85-1.82v-6.354h-2.461v6.568c0 2.277 1.72 3.743 4.311 3.743 2.57 0 4.305-1.466 4.305-3.743v-6.568h-2.456ZM155.468 19.138h3.093v8.183h2.426v-8.183h3.087v-1.999h-8.606v1.999ZM165.976 27.321h2.461v-4.092h4.012v4.092h2.456V17.139h-2.456v4.087h-4.012v-4.087h-2.461v10.182ZM177.149 27.321h7.099v-1.999h-4.638V23.23h4.275v-2.003h-4.275v-2.088h4.638v-1.999h-7.099v10.182ZM195.155 17.14h-2.456v5.866h-.085l-4.007-5.867h-2.118v10.182h2.461v-5.876h.065l4.052 5.876h2.088V17.139ZM197.069 19.138h3.092v8.183h2.427v-8.183h3.087v-1.999h-8.606v1.999ZM210.038 17.14h-2.461V27.32h2.461V17.139ZM221.525 20.828c-.249-2.436-2.063-3.828-4.524-3.828-2.715 0-4.828 1.864-4.828 5.23 0 3.351 2.064 5.23 4.828 5.23 2.794 0 4.34-1.899 4.524-3.704l-2.486-.015c-.174.98-.91 1.562-1.989 1.562-1.451 0-2.366-1.05-2.366-3.073 0-1.944.895-3.072 2.381-3.072 1.119 0 1.85.65 1.974 1.67h2.486ZM225.576 27.321l.671-2.138h3.515l.671 2.138h2.645l-3.435-10.182h-3.277l-3.435 10.182h2.645Zm1.258-4.007 1.128-3.61h.08l1.133 3.61h-2.341ZM233.27 19.138h3.092v8.183h2.426v-8.183h3.087v-1.999h-8.605v1.999ZM243.777 27.321h7.1v-1.999h-4.639V23.23h4.276v-2.003h-4.276v-2.088h4.639v-1.999h-7.1v10.182Z"></path></g><g fill="#FAD233"><path d="M257.202 161.933a309.546 309.546 0 0 0-79.644 69.768 51.654 51.654 0 0 0-7.499-3.438 317.57 317.57 0 0 1 84.53-74.101l3.933.922-1.32 6.849Z"></path><path fill-rule="evenodd" clip-rule="evenodd" d="m265.112 149.828-2.925 14.68 4.944.986 3.836-19.401-19.191-4.668-1.19 4.899 14.526 3.504Z"></path></g></g><g class="step-3" data-svg-origin="696.26806640625 177.99999809265137" transform="matrix(1,0,0,1,0,0)" style="transform-origin: 0px 0px; opacity: 1;"><path d="M566.268 178c15.464 0 28-12.536 28-28s-12.536-28-28-28-28 12.536-28 28 12.536 28 28 28Z" fill="#fff"></path><path d="M569.71 141H574a1.021 1.021 0 0 0-.184-.204l-4.442-3.602A1.103 1.103 0 0 0 569 137l.076 3.442c.006.31.285.553.634.558Z" fill="#1FBCFF"></path><path d="M575.5 153a5.507 5.507 0 0 0-5.5 5.5c0 3.034 2.466 5.5 5.5 5.5s5.5-2.466 5.5-5.5c0-3.033-2.466-5.5-5.5-5.5Zm1.999 4.576a.535.535 0 0 1-.747.045l-.613-.548v4.193a.523.523 0 0 1-.511.548.53.53 0 0 1-.502-.308.525.525 0 0 1-.048-.202v-4.155l-.549.548a.533.533 0 0 1-.747 0 .527.527 0 0 1 0-.745l1.194-1.186a.928.928 0 0 1 .569-.261c.019 0 .038-.007.064-.007h.057a.91.91 0 0 1 .575.249l1.214 1.077a.525.525 0 0 1 .044.752Z" fill="#FAD233"></path><path d="M570.113 141.768c-.801 0-1.452-.63-1.469-1.398l-.066-3.37h-11.662c-1.06.005-1.916.832-1.916 1.849v20.307c0 1.018.856 1.844 1.916 1.844h12.893c-1.811-2.437-1.198-5.854 1.364-7.597a5.74 5.74 0 0 1 2.827-.98v-10.655h-3.887Zm-11.739 13.611c-.547 0-.989-.424-.989-.948 0-.525.442-.949.989-.949.546 0 .988.424.988.949 0 .524-.442.948-.988.948Zm0-2.532c-.547 0-.989-.424-.989-.949 0-.524.442-.948.989-.948.546 0 .988.424.988.948 0 .525-.442.949-.988.949Zm0-2.533c-.547 0-.989-.424-.989-.948 0-.525.442-.949.989-.949.546 0 .988.424.988.949 0 .524-.442.948-.988.948Zm.657-4.736c.005-1.203.718-2.305 1.844-2.84a1.848 1.848 0 0 1 0-2.575 2.036 2.036 0 0 1 2.794-.111c.806.71.856 1.912.116 2.681 1.126.535 1.839 1.642 1.844 2.845 0 .524-.442.959-.988.959h-4.622c-.541 0-.988-.435-.988-.959Zm8.227 8.853a.311.311 0 0 1-.087.225.293.293 0 0 1-.101.069.318.318 0 0 1-.121.024h-6.267a.326.326 0 0 1-.332-.318c0-.175.15-.318.332-.318h6.267c.182 0 .309.143.309.318Zm0-2.533a.302.302 0 0 1-.189.287.292.292 0 0 1-.12.02h-6.267a.325.325 0 0 1-.332-.317c0-.175.15-.318.332-.318h6.267c.182 0 .309.153.309.328Zm0-2.532c0 .175-.127.296-.309.296h-6.267a.325.325 0 0 1-.332-.317c0-.175.15-.318.332-.318h6.267c.182 0 .309.164.309.339Z" fill="#1FBCFF"></path><g class="bubble-pointer" fill="#fff"><path d="M578.355 90.618a1 1 0 0 0-.155.17l-7.12 9.907c-.567.788-1.812.387-1.812-.584V88.216a.998.998 0 0 1 1-1h9.326c.924 0 1.354 1.148.656 1.754l-1.895 1.648Z"></path><path d="M696.268 87a3.997 3.997 0 0 1-4 4h-119a3.998 3.998 0 0 1-4-4V28a3.997 3.997 0 0 1 4-4h119a3.998 3.998 0 0 1 4 4v59Z"></path></g><path d="M593.198 40.818v6.354c0 1.059-.751 1.82-1.849 1.82-1.104 0-1.85-.761-1.85-1.82v-6.354h-2.461v6.568c0 2.277 1.72 3.743 4.311 3.743 2.57 0 4.305-1.466 4.305-3.743v-6.568h-2.456ZM597.896 51h2.461v-3.162h1.671c2.331 0 3.788-1.382 3.788-3.495 0-2.093-1.427-3.525-3.714-3.525h-4.206V51Zm2.461-5.1v-3.098h1.213c1.104 0 1.696.596 1.696 1.541 0 .94-.592 1.556-1.696 1.556h-1.213v.001Zm7.372 5.1h6.697v-1.999h-4.236v-8.183h-2.461V51Zm17.884-5.09c0-3.367-2.127-5.231-4.862-5.231-2.744 0-4.857 1.864-4.857 5.23 0 3.35 2.113 5.23 4.857 5.23 2.735 0 4.862-1.864 4.862-5.23v.001Zm-2.515 0c0 1.993-.875 3.072-2.347 3.072-1.466 0-2.346-1.08-2.346-3.073 0-1.993.88-3.072 2.346-3.072 1.472 0 2.347 1.078 2.347 3.072v.001Zm6.253 5.09.671-2.138h3.515l.671 2.138h2.645l-3.435-10.182h-3.276L626.706 51h2.645Zm1.258-4.007 1.128-3.61h.08l1.134 3.61h-2.342ZM642.413 51c3.102 0 5.026-1.914 5.026-5.096 0-3.177-1.924-5.086-5.031-5.086h-3.758V51h3.763Zm-1.303-2.098v-5.986h1.174c1.75 0 2.689.796 2.689 2.988 0 2.202-.939 2.998-2.654 2.998h-1.209Z" fill="#2ED6FF"></path><path d="M596.28 68.507c-.248-2.436-2.063-3.828-4.524-3.828-2.714 0-4.827 1.864-4.827 5.23 0 3.35 2.063 5.23 4.827 5.23 2.794 0 4.34-1.899 4.524-3.704l-2.485-.014c-.174.98-.91 1.56-1.989 1.56-1.452 0-2.367-1.048-2.367-3.072 0-1.944.895-3.072 2.382-3.072 1.118 0 1.849.65 1.974 1.67h2.485Zm4.42-3.689h-2.754L601.381 75h3.277l3.435-10.182h-2.754l-2.277 7.458h-.085l-2.277-7.458Zm13.041-.477h-2.073l-3.281 12.19h2.073l3.281-12.19Zm1.606 10.66h2.461v-3.486h1.263L620.93 75h2.685l-2.113-3.878c1.119-.507 1.765-1.506 1.765-2.913 0-2.093-1.427-3.39-3.714-3.39h-4.206V75Zm2.461-5.425v-2.774h1.213c1.104 0 1.695.462 1.695 1.407 0 .944-.591 1.367-1.695 1.367h-1.213ZM625.317 75h7.099v-1.999h-4.638v-2.093h4.275v-2.003h-4.275v-2.088h4.638v-1.999h-7.099V75Zm14.844-7.13h2.356c-.019-1.903-1.536-3.19-3.902-3.19-2.327 0-4.002 1.267-3.988 3.161-.004 1.546 1.079 2.416 2.839 2.82l1.064.247c1.119.26 1.621.562 1.631 1.134-.01.621-.592 1.054-1.581 1.054-1.089 0-1.805-.507-1.859-1.487h-2.357c.03 2.382 1.685 3.52 4.246 3.52 2.535 0 4.037-1.148 4.047-3.082-.01-1.626-1.109-2.62-3.118-3.063l-.875-.198c-.924-.2-1.511-.508-1.491-1.114.005-.557.482-.96 1.437-.96.959 0 1.486.433 1.551 1.16v-.002Zm10.598-3.052v6.354c0 1.06-.75 1.82-1.849 1.82-1.104 0-1.85-.76-1.85-1.82v-6.354h-2.46v6.568c0 2.277 1.72 3.743 4.31 3.743 2.57 0 4.305-1.466 4.305-3.743v-6.568h-2.456Zm4.699 0V75h2.396v-6.29h.085l2.446 6.225h1.531l2.446-6.19h.084V75h2.397V64.818h-3.048l-2.585 6.304h-.119l-2.586-6.304h-3.047ZM669.078 75h7.099v-1.999h-4.638v-2.093h4.275v-2.003h-4.275v-2.088h4.638v-1.999h-7.099V75Z" fill="#737373"></path><g fill="#FAD233"><path d="M417.223 109.145c29.657 0 58.359 4.086 85.574 11.726l1.671 2.823-6.432 4.164c-25.754-6.985-52.848-10.713-80.813-10.713-20.406 0-40.349 1.985-59.646 5.772a51.65 51.65 0 0 0-1.861-7.789c19.895-3.925 40.461-5.983 61.507-5.983Z"></path><path fill-rule="evenodd" clip-rule="evenodd" d="m512.157 125.171-7.481-12.965 4.366-2.52 9.859 17.144-16.678 10.58-2.699-4.259 12.633-7.98Z"></path></g></g><g class="step-4" data-svg-origin="891.2680053710938 429.29400634765625" transform="matrix(1,0,0,1,0,0)" style="transform-origin: 0px 0px; opacity: 1;"><path d="M715.89 349.744c6.065 24.114 9.286 40.358 9.286 66.354 0 4.421-.093 8.821-.277 13.196a52.857 52.857 0 0 1 8.008-.026c.179-4.367.269-8.758.269-13.17 0-27.544-3.524-45.265-10.147-70.736a52.135 52.135 0 0 1-7.139 4.382Z" fill="#FAD233"></path><path d="M700.268 329.129c15.464 0 28-12.536 28-28s-12.536-28-28-28-28 12.536-28 28 12.536 28 28 28Z" fill="#fff"></path><path d="M700.298 287c-4.953 0-8.99 3.921-9.212 8.846a20.158 20.158 0 0 0 2.788-1.13 6.63 6.63 0 0 1 1.763-3.139 6.569 6.569 0 0 1 4.689-1.954c1.762 0 3.427.698 4.676 1.954a6.749 6.749 0 0 1 1.762 3.139 20.17 20.17 0 0 0 2.789 1.13c-.25-4.925-4.301-8.846-9.255-8.846Z" fill="#F7DA00"></path><path d="M711.342 298.413a.925.925 0 0 0-.693-.893 21.054 21.054 0 0 1-9.685-5.302.919.919 0 0 0-1.304 0 21.023 21.023 0 0 1-9.698 5.302.91.91 0 0 0-.694.893v4.507a8.327 8.327 0 0 0 3.399 6.726l7.09 5.176a.912.912 0 0 0 1.082 0l7.09-5.176a8.365 8.365 0 0 0 3.4-6.726v-4.507h.013Z" fill="#21BCFF"></path><path d="M711.342 298.413a.925.925 0 0 0-.693-.893 21.054 21.054 0 0 1-9.685-5.302.919.919 0 0 0-1.304 0 21.023 21.023 0 0 1-9.698 5.302.91.91 0 0 0-.694.893v4.507a8.327 8.327 0 0 0 3.399 6.726l7.09 5.176a.912.912 0 0 0 1.082 0l7.09-5.176a8.365 8.365 0 0 0 3.4-6.726v-4.507h.013Z" fill="#21BCFF"></path><path d="m706.098 301.26-6.147 6.195a1.252 1.252 0 0 1-1.748 0l-3.69-3.712a1.242 1.242 0 0 1 0-1.758 1.227 1.227 0 0 1 1.748 0l2.816 2.847 5.287-5.33a1.225 1.225 0 0 1 1.748 0 1.257 1.257 0 0 1-.014 1.758Z" fill="#fff"></path><g class="bubble-pointer" fill="#fff"><path d="M725.355 246.618c-.058.051-.11.108-.155.171l-7.12 9.906c-.567.788-1.812.387-1.812-.584v-11.895a.997.997 0 0 1 1-1h9.326c.924 0 1.354 1.148.656 1.754l-1.895 1.648Z"></path><path d="M891.268 243a3.995 3.995 0 0 1-1.172 2.828 3.995 3.995 0 0 1-2.828 1.172h-167a3.995 3.995 0 0 1-2.828-1.172 3.995 3.995 0 0 1-1.172-2.828v-59c0-1.061.421-2.078 1.172-2.828a3.995 3.995 0 0 1 2.828-1.172h167c1.061 0 2.078.421 2.828 1.172a3.995 3.995 0 0 1 1.172 2.828v59Z"></path></g><path d="M739.542 199.871h2.356c-.02-1.904-1.536-3.192-3.902-3.192-2.327 0-4.003 1.268-3.988 3.162-.005 1.546 1.079 2.416 2.839 2.819l1.064.248c1.119.259 1.621.562 1.631 1.134-.01.621-.592 1.054-1.581 1.054-1.089 0-1.805-.507-1.86-1.487h-2.356c.03 2.382 1.685 3.52 4.246 3.52 2.535 0 4.037-1.148 4.046-3.082-.009-1.626-1.108-2.62-3.117-3.063l-.875-.198c-.924-.199-1.511-.508-1.491-1.114.005-.557.482-.96 1.437-.96.959 0 1.486.433 1.551 1.159ZM743.98 207h2.461v-4.092h4.012V207h2.456v-10.182h-2.456v4.087h-4.012v-4.087h-2.461V207Zm13.375 0 .672-2.138h3.515l.671 2.138h2.645l-3.436-10.182h-3.276L754.711 207h2.644Zm1.258-4.007 1.129-3.609h.079l1.134 3.609h-2.342Zm8.041 4.007h2.461v-3.485h1.263l1.859 3.485h2.685l-2.113-3.878c1.118-.507 1.765-1.506 1.765-2.913 0-2.093-1.427-3.391-3.714-3.391h-4.206V207Zm2.461-5.424v-2.774h1.213c1.103 0 1.695.462 1.695 1.407 0 .944-.592 1.367-1.695 1.367h-1.213Zm7.508 5.424h7.1v-1.999h-4.639v-2.093h4.276v-2.003h-4.276v-2.088h4.639v-1.999h-7.1V207Z" fill="#2ED6FF"></path><path d="m733.531 220.818 3.724 6.781V231h2.446v-3.401l3.724-6.781h-2.75l-2.152 4.261h-.09l-2.153-4.261h-2.749Zm20.565 5.091c0-3.366-2.128-5.23-4.862-5.23-2.744 0-4.857 1.864-4.857 5.23 0 3.351 2.113 5.23 4.857 5.23 2.734 0 4.862-1.864 4.862-5.23Zm-2.515 0c0 1.994-.875 3.073-2.347 3.073-1.467 0-2.347-1.079-2.347-3.073s.88-3.072 2.347-3.072c1.472 0 2.347 1.078 2.347 3.072Zm10.812-5.091v6.354c0 1.059-.751 1.819-1.85 1.819-1.103 0-1.849-.76-1.849-1.819v-6.354h-2.461v6.568c0 2.277 1.72 3.743 4.31 3.743 2.571 0 4.306-1.466 4.306-3.743v-6.568h-2.456ZM767.091 231h2.461v-3.485h1.263l1.859 3.485h2.685l-2.113-3.878c1.119-.507 1.765-1.506 1.765-2.913 0-2.093-1.427-3.391-3.714-3.391h-4.206V231Zm2.461-5.424v-2.774h1.213c1.104 0 1.696.462 1.696 1.407 0 .944-.592 1.367-1.696 1.367h-1.213ZM780.769 231h2.461v-2.759l.984-1.243 2.535 4.002h2.944l-3.674-5.638 3.609-4.544h-2.898l-3.366 4.306h-.134v-4.306h-2.461V231Zm10.53 0h7.099v-1.999h-4.638v-2.093h4.275v-2.003h-4.275v-2.088h4.638v-1.999h-7.099V231Zm13.104 0c3.102 0 5.026-1.914 5.026-5.096 0-3.177-1.924-5.086-5.031-5.086h-3.759V231h3.764Zm-1.303-2.098v-5.986h1.174c1.75 0 2.689.796 2.689 2.988 0 2.203-.939 2.998-2.655 2.998H803.1ZM815.274 231h2.461v-3.162h1.67c2.332 0 3.788-1.382 3.788-3.495 0-2.093-1.426-3.525-3.713-3.525h-4.206V231Zm2.461-5.101v-3.097h1.213c1.103 0 1.695.596 1.695 1.541 0 .94-.592 1.556-1.695 1.556h-1.213Zm7.372 5.101h2.46v-3.485h1.263l1.86 3.485h2.684l-2.113-3.878c1.119-.507 1.765-1.506 1.765-2.913 0-2.093-1.427-3.391-3.714-3.391h-4.205V231Zm2.46-5.424v-2.774h1.214c1.103 0 1.695.462 1.695 1.407 0 .944-.592 1.367-1.695 1.367h-1.214Zm17.119.333c0-3.366-2.128-5.23-4.862-5.23-2.744 0-4.857 1.864-4.857 5.23 0 3.351 2.113 5.23 4.857 5.23 2.734 0 4.862-1.864 4.862-5.23Zm-2.515 0c0 1.994-.875 3.073-2.347 3.073-1.467 0-2.347-1.079-2.347-3.073s.88-3.072 2.347-3.072c1.472 0 2.347 1.078 2.347 3.072Zm4.652 5.091h2.461v-4.092h4.047v-2.003h-4.047v-2.088h4.489v-1.999h-6.95V231Zm11.35-10.182h-2.461V231h2.461v-10.182ZM860.418 231h6.697v-1.999h-4.236v-8.183h-2.461V231Zm8.671 0h7.099v-1.999h-4.638v-2.093h4.275v-2.003h-4.275v-2.088h4.638v-1.999h-7.099V231Z" fill="#737373"></path><g fill="#FAD233"><path fill-rule="evenodd" clip-rule="evenodd" d="m672.086 248.318 5.537-13.908 4.685 1.864-7.344 18.364-18.639-6.532 1.669-4.757 14.092 4.969Z"></path><path d="M661.641 237.737a309.743 309.743 0 0 0-54.382-54.98 51.737 51.737 0 0 0 3.78-7.2 317.825 317.825 0 0 1 59.042 60.066l-2.018 4.619-6.422-2.505Z"></path></g></g><defs><pattern id="a" patternContentUnits="objectBoundingBox" width="1" height="1"><use xlink:href="#e" transform="scale(.00135)"></use></pattern><pattern id="c" patternContentUnits="objectBoundingBox" width="1" height="1"><use xlink:href="#f" transform="matrix(.00833 0 0 .00654 0 -.003)"></use></pattern><image id="e" width="740" height="740" xlink:href="https://d3byi6qnvh2q8y.cloudfront.net/candidate/emily-image.png"></image><image id="f" width="107" height="147" xlink:href="https://d3byi6qnvh2q8y.cloudfront.net/candidate/emily-small.png"></image><linearGradient id="d" x1="519.001" y1="677.938" x2="547.002" y2="677.938" gradientUnits="userSpaceOnUse"><stop stop-color="#FF9085"></stop><stop offset="1" stop-color="#FB6FBB"></stop></linearGradient><filter id="b" x="414" y="615.938" width="147" height="105.897" filterUnits="userSpaceOnUse" color-interpolation-filters="sRGB"><feFlood flood-opacity="0" result="BackgroundImageFix"></feFlood><feColorMatrix in="SourceAlpha" values="0 0 0 0 0 0 0 0 0 0 0 0 0 0 0 0 0 0 127 0" result="hardAlpha"></feColorMatrix><feOffset dy="4"></feOffset><feGaussianBlur stdDeviation="2"></feGaussianBlur><feComposite in2="hardAlpha" operator="out"></feComposite><feColorMatrix values="0 0 0 0 0 0 0 0 0 0 0 0 0 0 0 0 0 0 0.25 0"></feColorMatrix><feBlend in2="BackgroundImageFix" result="effect1_dropShadow"></feBlend><feBlend in="SourceGraphic" in2="effect1_dropShadow" result="shape"></feBlend></filter></defs></svg>