<svg xmlns="http://www.w3.org/2000/svg" width="20.928" height="36.624" viewBox="0 0 20.928 36.624">
  <g id="Group_355" data-name="Group 355" transform="translate(-10194 4966)">
    <path id="Icon_open-badge" data-name="Icon open-badge" d="M8.72,0a8.72,8.72,0,1,0,8.72,8.72A8.746,8.746,0,0,0,8.72,0ZM4.36,20.971V34.88l4.36-4.36,4.36,4.36V20.971a13.125,13.125,0,0,1-4.36.828A13.125,13.125,0,0,1,4.36,20.971Z" transform="translate(10195.744 -4964.256)" fill="#0a1c2b"/>
    <path id="Icon_awesome-certificate" data-name="Icon awesome-certificate" d="M18.746,10.461l1.88-1.84a.974.974,0,0,0-.436-1.649l-2.561-.654.722-2.535a.99.99,0,0,0-1.212-1.213L14.6,3.293,13.951.731A.981.981,0,0,0,12.3.3L10.464,2.19,8.625.3A.981.981,0,0,0,6.977.732L6.323,3.293,3.789,2.571A.99.99,0,0,0,2.577,3.784L3.3,6.319.738,6.972A.974.974,0,0,0,.3,8.621l1.88,1.84L.3,12.3a.974.974,0,0,0,.436,1.649L3.3,14.6l-.722,2.535A.99.99,0,0,0,3.789,18.35l2.534-.722.653,2.562a.972.972,0,0,0,1.648.436l1.839-1.88,1.839,1.88a.976.976,0,0,0,1.648-.436l.653-2.562,2.534.722a.99.99,0,0,0,1.212-1.213L17.629,14.6l2.561-.654a.974.974,0,0,0,.436-1.649l-1.88-1.84Z" transform="translate(10194 -4966)" fill="#0a1c2b"/>
  </g>
</svg>
