<svg xmlns="http://www.w3.org/2000/svg" width="56.299" height="50.669" viewBox="0 0 56.299 50.669">
  <path id="Icon_material-business-center" data-name="Icon material-business-center" d="M25.519,41.094V38.279H5.843l-.028,11.26a5.61,5.61,0,0,0,5.63,5.63H50.854a5.61,5.61,0,0,0,5.63-5.63V38.279h-19.7v2.815ZM53.669,15.76H42.381V10.13L36.751,4.5H25.491l-5.63,5.63v5.63H8.63A5.646,5.646,0,0,0,3,21.39v8.445a5.61,5.61,0,0,0,5.63,5.63h16.89v-5.63h11.26v5.63h16.89a5.646,5.646,0,0,0,5.63-5.63V21.39A5.646,5.646,0,0,0,53.669,15.76Zm-16.89,0H25.519V10.13h11.26Z" transform="translate(-3 -4.5)" fill="#7c878e"/>
</svg>
