<svg xmlns="http://www.w3.org/2000/svg" width="67.721" height="54.168" viewBox="0 0 67.721 54.168">
  <path id="Icon_awesome-code" data-name="Icon awesome-code" d="M29.51,54.118l-6.454-1.873a1.272,1.272,0,0,1-.868-1.576L36.631.919A1.272,1.272,0,0,1,38.207.052l6.454,1.873A1.272,1.272,0,0,1,45.529,3.5L31.086,53.25a1.268,1.268,0,0,1-1.576.868ZM17.448,42.247l4.6-4.909a1.27,1.27,0,0,0-.085-1.82L12.38,27.085l9.586-8.433a1.261,1.261,0,0,0,.085-1.82l-4.6-4.909a1.271,1.271,0,0,0-1.8-.053L.4,26.154a1.261,1.261,0,0,0,0,1.852L15.649,42.3a1.262,1.262,0,0,0,1.8-.053Zm34.62.063L67.314,28.016a1.261,1.261,0,0,0,0-1.852l-15.247-14.3a1.281,1.281,0,0,0-1.8.053l-4.6,4.909a1.27,1.27,0,0,0,.085,1.82l9.586,8.443-9.586,8.433a1.261,1.261,0,0,0-.085,1.82l4.6,4.909A1.271,1.271,0,0,0,52.068,42.31Z" transform="translate(0.002 -0.003)" fill="#7c878e"/>
</svg>
