<svg id="Group_4" data-name="Group 4" xmlns="http://www.w3.org/2000/svg" xmlns:xlink="http://www.w3.org/1999/xlink" width="73.174" height="72.305" viewBox="0 0 73.174 72.305">
  <defs>
    <clipPath id="clip-path">
      <rect id="Rectangle_23" data-name="Rectangle 23" width="73.174" height="72.305" fill="#7c878e"/>
    </clipPath>
  </defs>
  <g id="Group_3" data-name="Group 3" clip-path="url(#clip-path)">
    <path id="Path_5" data-name="Path 5" d="M186.258,18.41a2.777,2.777,0,0,1-1.968,1.6q-4.913,1.371-9.81,2.8a4.454,4.454,0,0,1-2.59,0c-3.264-.954-6.536-1.881-9.809-2.806a2.362,2.362,0,0,1-2.006-2.195c-.026-.375-.23-.488-.563-.481-.214,0-.428,0-.643,0H139.021c-.191,0-.381,0-.571,0-.8-.011-.846-.064-.585-.8a14.437,14.437,0,0,0,.7-2.758,14.944,14.944,0,0,0-.674-7.235c-.3-.846-.284-.877.616-.877q10.317,0,20.634.011c.624,0,.909-.1.989-.817.12-1.076.953-1.574,1.932-1.852,3.226-.916,6.457-1.816,9.67-2.774a4.932,4.932,0,0,1,2.932.008q4.754,1.41,9.536,2.725a2.905,2.905,0,0,1,2.056,1.6V5.984c-.911,1.457-1.612,1.723-3.291,1.244-3.087-.879-6.173-1.764-9.262-2.635-1.01-.285-1.268-.084-1.268.93q0,5.889,0,11.778c0,1.237.226,1.4,1.459,1.047l9.054-2.587c1.673-.478,2.368-.223,3.309,1.22Z" transform="translate(-113.084 0)" fill="#7c878e"/>
    <path id="Path_6" data-name="Path 6" d="M83.263,162.238q-7.994,0-15.989,0c-1.036,0-1.078-.081-.975-1.105.188-1.867.32-3.74.512-5.607a2.134,2.134,0,0,1,2.271-2.077c1.549-.028,1.549-.029.767-1.384L57.115,130c-.434-.753-.407-.8.468-.813a14.569,14.569,0,0,0,9.546-3.576c.673-.572.673-.566,1.116.2Q76,139.257,83.752,152.706a1.288,1.288,0,0,0,1.288.757c4.044-.03,8.089-.016,12.134-.014,1.677,0,2.418.606,2.6,2.262.216,1.936.344,3.881.531,5.82.073.76-.42.709-.912.709q-8.066,0-16.131,0" transform="translate(-46.673 -102.81)" fill="#7c878e"/>
    <path id="Path_7" data-name="Path 7" d="M21.521,14.665A10.761,10.761,0,1,1,10.747,3.827,10.786,10.786,0,0,1,21.521,14.665" transform="translate(0 -3.142)" fill="#7c878e"/>
    <path id="Path_8" data-name="Path 8" d="M122.569,355.063q8.212,0,16.423,0c.975,0,.958.006,1.031.995.13,1.754.325,3.5.412,5.26a2.17,2.17,0,0,1-2.444,2.533q-15.423,0-30.847,0a2.184,2.184,0,0,1-2.478-2.571c.095-1.875.291-3.744.427-5.617.033-.465.271-.605.7-.6,1.309.009,2.618,0,3.927,0h12.853" transform="translate(-85.939 -291.549)" fill="#7c878e"/>
  </g>
</svg>
