<svg xmlns="http://www.w3.org/2000/svg" width="16.587" height="29.329" viewBox="0 0 16.587 29.329">
  <path id="Icon_material-attach-money" data-name="Icon material-attach-money" d="M18.409,17.372c-3.7-.961-4.888-1.955-4.888-3.5,0-1.776,1.646-3.014,4.4-3.014,2.9,0,3.976,1.385,4.073,3.422h3.6a6.5,6.5,0,0,0-5.23-6.208V4.5H15.476V8.019c-3.161.684-5.7,2.737-5.7,5.882,0,3.764,3.112,5.638,7.658,6.729,4.073.978,4.888,2.411,4.888,3.927,0,1.124-.8,2.917-4.4,2.917-3.357,0-4.676-1.5-4.856-3.422H9.48c.2,3.568,2.868,5.572,6,6.241v3.536h4.888v-3.5c3.177-.6,5.7-2.444,5.7-5.784C26.067,19.914,22.108,18.333,18.409,17.372Z" transform="translate(-9.48 -4.5)" fill="#0a1c2b"/>
</svg>
