<svg xmlns="http://www.w3.org/2000/svg" xmlns:xlink="http://www.w3.org/1999/xlink" width="116.386" height="29.982" viewBox="0 0 116.386 29.982">
  <defs>
    <clipPath id="clip-path">
      <path id="Path_31" data-name="Path 31" d="M26.384,12.013H14.359V17h6.922c-.645,3.168-3.343,4.986-6.922,4.986a7.625,7.625,0,0,1,0-15.251,7.46,7.46,0,0,1,4.751,1.7l3.754-3.754a12.9,12.9,0,1,0-8.505,22.583c6.452,0,12.318-4.693,12.318-12.9A10.706,10.706,0,0,0,26.384,12.013Z" transform="translate(-1.455 -1.455)"/>
    </clipPath>
  </defs>
  <g id="Group_19" data-name="Group 19" transform="translate(-2787 4954)">
    <g id="google-ar21" transform="translate(2816.842 -4952.387)">
      <path id="Path_24" data-name="Path 24" d="M27.273,24.043h-10.1v3h7.162c-.355,4.194-3.85,5.994-7.15,5.994a8,8,0,0,1,.01-16.006,7.773,7.773,0,0,1,5.4,2.166l2.1-2.173a10.671,10.671,0,0,0-7.606-3A11.19,11.19,0,0,0,5.994,25,11.154,11.154,0,0,0,17.245,36.037c5.893,0,10.208-4.038,10.208-10.008a8.968,8.968,0,0,0-.183-1.987Z" transform="translate(-5.994 -14.022)" fill="#7c878e"/>
      <path id="Path_25" data-name="Path 25" d="M40.928,23.755a7.075,7.075,0,1,0,7.1,7.1,6.992,6.992,0,0,0-7.1-7.1Zm.04,2.779a4.068,4.068,0,0,1,3.968,4.3,4.016,4.016,0,1,1-8.011-.021,4.082,4.082,0,0,1,4.049-4.281Z" transform="translate(-11.376 -15.905)" fill="#7c878e"/>
      <path id="Path_26" data-name="Path 26" d="M40.928,23.755a7.075,7.075,0,1,0,7.1,7.1,6.992,6.992,0,0,0-7.1-7.1Zm.04,2.779a4.068,4.068,0,0,1,3.968,4.3,4.016,4.016,0,1,1-8.011-.021,4.082,4.082,0,0,1,4.049-4.281Z" transform="translate(4.094 -15.905)" fill="#7c878e"/>
      <path id="Path_27" data-name="Path 27" d="M79,23.765a7.084,7.084,0,0,0-.066,14.153A4.643,4.643,0,0,0,82.8,36.2v1.4a3.551,3.551,0,0,1-3.72,3.9,3.944,3.944,0,0,1-3.629-2.519l-2.72,1.129a6.81,6.81,0,0,0,6.372,4.167c3.791,0,6.664-2.382,6.664-7.377V24.19H82.815v1.2A5,5,0,0,0,79,23.765Zm.274,2.775a4,4,0,0,1,3.779,4.311,3.954,3.954,0,0,1-3.821,4.287,4.02,4.02,0,0,1-3.914-4.261,4.078,4.078,0,0,1,3.955-4.338Z" transform="translate(-18.803 -15.907)" fill="#7c878e"/>
      <path id="Path_28" data-name="Path 28" d="M103.817,23.744c-3.588,0-6.6,2.855-6.6,7.065a6.841,6.841,0,0,0,6.936,7.1,7.167,7.167,0,0,0,5.928-3.105l-2.446-1.628a3.962,3.962,0,0,1-3.467,1.948,3.639,3.639,0,0,1-3.471-2.145l9.487-3.936L109.7,27.89a6.407,6.407,0,0,0-5.884-4.146Zm.123,2.721a2.82,2.82,0,0,1,2.618,1.511l-6.336,2.648a3.929,3.929,0,0,1,3.71-4.159Z" transform="translate(-23.642 -15.903)" fill="#7c878e"/>
      <path id="Path_29" data-name="Path 29" d="M91.6,35.785h3.116V14.93H91.6Z" transform="translate(-22.555 -14.198)" fill="#7c878e"/>
    </g>
    <g id="google-icon" transform="translate(2787 -4954)">
      <g id="Group_15" data-name="Group 15" transform="translate(0 0)" clip-path="url(#clip-path)">
        <path id="Path_30" data-name="Path 30" d="M0,23.251V8l9.972,7.625Z" transform="translate(-1.173 -2.721)" fill="#fbbc05"/>
      </g>
      <g id="Group_16" data-name="Group 16" transform="translate(0 0)" clip-path="url(#clip-path)">
        <path id="Path_32" data-name="Path 32" d="M0,6.452l9.972,7.625L14.078,10.5,28.156,8.212V0H0Z" transform="translate(-1.173 -1.173)" fill="#ea4335"/>
      </g>
      <g id="Group_17" data-name="Group 17" transform="translate(0 0)" clip-path="url(#clip-path)">
        <path id="Path_34" data-name="Path 34" d="M0,21.7,17.6,8.212l4.634.587L28.156,0V28.156H0Z" transform="translate(-1.173 -1.173)" fill="#34a853"/>
      </g>
      <g id="Group_18" data-name="Group 18" transform="translate(0 0)" clip-path="url(#clip-path)">
        <path id="Path_36" data-name="Path 36" d="M29.985,29.7,11.8,15.625l-2.346-1.76L29.985,8Z" transform="translate(-3.002 -2.721)" fill="#4285f4"/>
      </g>
    </g>
  </g>
</svg>
