<svg xmlns="http://www.w3.org/2000/svg" width="34.082" height="26.503" viewBox="0 0 34.082 26.503">
  <path id="Icon_awesome-home" data-name="Icon awesome-home" d="M16.588,9.129,5.68,18.113v9.7a.947.947,0,0,0,.947.947l6.63-.017a.947.947,0,0,0,.942-.947V22.13a.947.947,0,0,1,.947-.947h3.787a.947.947,0,0,1,.947.947v5.659a.947.947,0,0,0,.947.95l6.628.018a.947.947,0,0,0,.947-.947v-9.7L17.493,9.129A.721.721,0,0,0,16.588,9.129Zm17.231,6.107-4.946-4.077v-8.2a.71.71,0,0,0-.71-.71H24.849a.71.71,0,0,0-.71.71v4.3L18.842,2.9a2.84,2.84,0,0,0-3.609,0L.257,15.236a.71.71,0,0,0-.095,1L1.671,18.07a.71.71,0,0,0,1,.1L16.588,6.7a.721.721,0,0,1,.905,0L31.411,18.166a.71.71,0,0,0,1-.095l1.509-1.834a.71.71,0,0,0-.1-1Z" transform="translate(0.001 -2.254)" fill="#0a1c2b"/>
</svg>
